<?xml version="1.0" encoding="UTF-8" standalone="no"?><!DOCTYPE svg PUBLIC "-//W3C//DTD SVG 1.1//EN" "http://www.w3.org/Graphics/SVG/1.1/DTD/svg11.dtd"><svg width="100%" height="100%" viewBox="0 0 1600 1600" version="1.1" xmlns="http://www.w3.org/2000/svg" xmlns:xlink="http://www.w3.org/1999/xlink" xml:space="preserve" xmlns:serif="http://www.serif.com/" style="fill-rule:evenodd;clip-rule:evenodd;stroke-linejoin:round;stroke-miterlimit:2;"><g id="Background"><path d="M735.92,16.494c2.951,0.023 117.907,0.002 128.159,0c6.269,2.038 5.628,3.062 12.462,4.051c55.176,7.991 55.05,7.248 109.211,19.283c11.464,3.071 22.927,6.142 34.391,9.214c31.727,9.898 31.517,9.854 62.661,21.289l9.17,3.644c34.522,14.436 69.556,29.401 127.762,65.986c1.965,1.221 3.93,2.442 5.895,3.663c3.304,2.155 11.956,7.799 40.514,28.116c3.777,2.945 27.1,21.132 46.578,37.611l3.318,2.912c35.57,33.239 35.352,33.165 68.763,68.332c2.931,3.311 2.701,3.042 2.931,3.311c0.783,0.918 0.489,0.859 1.42,1.95c4.823,5.507 9.645,11.014 14.468,16.522c3.437,4.68 3.455,4.273 6.83,8.949c10.262,13.208 10.185,13.133 11.083,14.265c2.098,2.644 2.132,2.235 4.12,4.739l2.704,3.486c6.415,9.219 6.275,9.026 12.993,18.304l2.647,3.55c0.811,1.197 6.267,9.248 10.008,15.06l2.475,3.621c11.843,19.573 14.39,22.822 22.6,36.924l2.265,3.72c28.937,53.296 40.373,82.384 43.748,90.273l1.001,2.735l5.203,12.841l0.945,2.812c5.26,14.985 9.663,23.858 24.233,75.115c1.77,7.108 3.541,14.217 5.311,21.325c1.259,5.489 8.981,39.154 13.267,69.135c3.381,23.653 2.14,23.659 8.406,46.692c-0.192,64.093 0.209,63.899 -0.004,128.157c-0.318,1.289 -2.008,1.944 -2.326,3.233c-1.244,5.046 -1.424,10.297 -2.275,15.424c-9.645,58.097 -8.037,58.191 -21.694,115.53c-10.312,36.265 -9.83,36.241 -24.857,78.105c-6.119,15.723 -6.041,15.387 -12.53,31.21l-1.729,3.737c-5.558,12.283 -5.402,12.107 -11.047,24.235c-3.726,7.506 -7.452,15.012 -11.178,22.519c-4.83,9.006 -9.659,18.012 -14.489,27.017l-2.211,3.65c-6.968,12.062 -15.113,25.3 -16.455,27.483l-2.492,3.624c-3.429,5.417 -3.403,5.385 -3.704,5.85c-1.778,2.745 -1.846,2.385 -3.483,4.912c-7.252,10.872 -6.997,10.699 -7.635,11.608l-3.946,5.682c-6.637,9.229 -6.47,8.996 -13.039,18.306l-5.437,6.836c-3.82,5.055 -3.79,5.027 -4.126,5.459c-4.2,5.413 -4.237,5.037 -8.27,10.236c-3.398,4.644 -3.428,4.28 -6.857,8.936c-4.32,5.025 -8.641,10.05 -12.961,15.074l-5.848,6.662c-43.985,47.408 -47.996,48.894 -68.803,68.344l-1.874,1.46c-6.659,5.738 -13.319,11.476 -19.978,17.214c-2.235,1.761 -15.723,12.386 -28.034,21.889c-1.888,1.3 -3.777,2.6 -5.665,3.9c-5.398,3.898 -10.796,7.796 -16.194,11.695c-1.908,1.286 -3.816,2.572 -5.723,3.859c-6.58,4.234 -6.211,4.273 -12.946,8.649c-1.965,1.214 -3.929,2.429 -5.894,3.643c-34.136,21.501 -56.462,33.896 -103.292,55.586l-8.956,3.954l-15.534,6.426l-6.431,2.64c-30.935,11.621 -30.695,11.246 -62.425,21.591c-90.482,25.627 -92.277,16.664 -162.168,33.176c-0.23,-0.003 -97.078,0.073 -121.904,-0.007c-27.312,-8.481 -51.006,-6.866 -90.756,-15.573c-34.569,-7.572 -34.396,-7.527 -68.414,-16.93l-2.933,-0.743c-31.663,-10.181 -31.32,-10.204 -62.498,-21.546l-6.414,-2.612c-46.484,-19.612 -46.136,-19.811 -90.608,-43.619l-6.109,-3.404c-15.875,-9.181 -15.616,-9.23 -31.028,-18.998c-1.964,-1.225 -3.929,-2.449 -5.893,-3.674c-1.51,-0.974 -9.47,-6.107 -18.682,-12.459c-4.366,-3.133 -4.01,-3.211 -8.413,-6.37c-0.613,-0.44 -0.577,-0.394 -7.787,-5.313c-1.896,-1.311 -3.791,-2.622 -5.687,-3.933c-11.384,-8.789 -10.968,-8.804 -22.53,-17.772c-1.826,-1.37 -3.652,-2.74 -5.478,-4.11c-10.015,-8.587 -9.777,-8.385 -20.012,-17.156l-1.874,-1.45c-10.122,-9.497 -29.758,-25.888 -68.779,-68.364c-1.96,-2.225 -3.919,-4.45 -5.879,-6.674c-4.323,-5.016 -8.646,-10.032 -12.97,-15.049c-3.413,-4.616 -3.486,-4.3 -6.858,-8.924c-1.223,-1.519 -8.267,-10.265 -15.126,-19.12l-2.693,-3.42c-6.549,-9.267 -6.39,-9.045 -13.056,-18.285l-2.656,-3.544c-0.812,-1.198 -6.266,-9.246 -9.953,-15.114c-3.091,-4.921 -3.105,-4.605 -6.149,-9.414l-2.5,-3.629c-17.595,-28.558 -17.288,-28.525 -33.173,-58.132c-3.728,-7.508 -7.457,-15.016 -11.185,-22.524c-5.696,-12.273 -5.542,-12.1 -11.025,-24.245l-1.718,-3.741l-7.507,-18.216l-5.064,-12.985c-14.385,-40.092 -14.418,-39.891 -25.689,-81.005c-10.281,-42.786 -10.104,-42.683 -14.952,-72.022c-4.926,-29.81 -3.292,-29.935 -10.44,-59.28c0.051,-31.744 -0.28,-31.631 0.001,-128.157c6.178,-22.959 4.941,-22.968 8.349,-46.693c5.025,-34.976 5.773,-34.523 13.23,-69.146c1.781,-7.109 3.562,-14.219 5.343,-21.328c0.473,-1.754 0.578,-1.668 6.204,-21.844c8.591,-26.838 8.438,-26.555 18.028,-53.268l0.953,-2.807l5.2,-12.845l1.001,-2.709c20.976,-49.047 27.042,-58.85 43.785,-90.335l2.237,-3.678c1.739,-2.995 7.362,-12.677 22.602,-36.916l2.502,-3.618c3.72,-5.822 9.177,-13.862 9.989,-15.058l2.675,-3.539c6.65,-9.266 6.491,-9.042 12.944,-18.34l2.714,-3.482c2.093,-2.651 2.137,-2.233 4.119,-4.744c0.895,-1.134 0.821,-1.057 11.082,-14.265c3.394,-4.651 3.48,-4.354 6.863,-8.924c4.817,-5.512 9.633,-11.025 14.45,-16.537c0.931,-1.082 0.639,-1.024 1.421,-1.934c0.231,-0.269 0,-0 2.942,-3.31c33.429,-35.145 33.155,-35.116 68.804,-68.254c1.747,-1.443 3.495,-2.886 5.242,-4.329c5.079,-4.438 26.731,-23.355 66.492,-51.835c1.904,-1.294 3.809,-2.588 5.713,-3.882c1.051,-0.667 0.921,-0.778 12.964,-8.594c1.966,-1.226 3.932,-2.453 5.898,-3.679c15.562,-9.886 15.208,-9.878 31.017,-19.011l6.107,-3.408c34.021,-18.117 33.725,-18.102 68.72,-34.296l6.381,-2.844l15.501,-6.485l9.192,-3.566c31.207,-11.465 31.038,-11.377 62.648,-21.355c17.355,-4.833 17.051,-4.775 34.372,-9.24c96.308,-21.89 97.813,-14.064 118.454,-20.778c1.302,-0.424 1.918,-2.126 3.221,-2.55Z" style="fill:#e73a2c;fill-opacity:1;"/><path d="M340.789,895.312c0,-227.309 -1.085,-228.233 7.061,-244.034c24.494,-47.51 54.239,-42.09 172.462,-41.676c19.886,0.07 18.361,4.79 32.472,18.86c24.537,24.467 24.607,24.27 26.727,26.401c124.419,125.039 403.386,402.7 405.717,406.469c5.375,8.691 1.98,9.648 1.644,127.73c-0.207,72.647 -60.494,100.546 -106.985,89.679c-34.178,-7.989 -43.385,-26.725 -300.631,-282.993c-17.742,-17.674 -163.562,9.894 -205.095,-17.185c-41.393,-26.989 -33.406,-79.438 -33.372,-83.252Z"/><path d="M1259.024,1176.536c-1.882,22.539 -24.007,49.914 -59.469,14.533c-64.068,-63.923 -792.443,-790.646 -799.847,-800.036c-27.427,-34.787 16.617,-69.443 44.697,-41.65c65.446,64.779 189.998,192.471 194.629,192.317c8.267,-0.275 195.616,-202.053 222.349,-214.137c56.525,-25.551 125.048,5.972 125.55,83.376c0.679,104.679 -1.694,474.52 1.471,481.606c1.615,3.615 2.221,3.171 102.894,103.657c149.541,149.263 150.978,147.91 161.914,162.659c4.316,5.82 5.625,16.198 5.811,17.674Z"/></g></svg>