<?xml version="1.0" encoding="UTF-8" standalone="no"?><!DOCTYPE svg PUBLIC "-//W3C//DTD SVG 1.1//EN" "http://www.w3.org/Graphics/SVG/1.1/DTD/svg11.dtd"><svg width="100%" height="100%" viewBox="0 0 1600 1600" version="1.1" xmlns="http://www.w3.org/2000/svg" xmlns:xlink="http://www.w3.org/1999/xlink" xml:space="preserve" xmlns:serif="http://www.serif.com/" style="fill-rule:evenodd;clip-rule:evenodd;stroke-linejoin:round;stroke-miterlimit:2;"><g id="Background"><path d="M739.084,17.881c80.731,-2.465 80.508,-0.679 121.832,0c46.074,8.302 66.158,3.107 165.461,31.446c31.545,10.213 31.339,10.228 62.255,21.885c2.14,0.964 4.281,1.928 6.421,2.893c25.39,11.03 52.237,20.325 127.415,66.384c48.094,31.786 73.476,53.68 87.705,65.005l6.522,6.03c36.251,32.607 35.226,33.394 68.99,68.369c2.257,2.487 19.442,21.431 26.852,32.27c6.28,7.979 5.846,7.988 12.813,15.092c2.174,3.154 4.348,6.309 6.523,9.463c2.941,4.176 5.883,8.353 8.824,12.529c6.104,8.864 5.96,8.762 6.5,9.508c2.044,3.06 4.088,6.119 6.132,9.179l6.284,9.616c9.704,15.27 17.353,28.395 18.81,30.896c1.273,2.001 2.545,4.002 3.818,6.002c3.656,6.908 27.266,51.511 42.964,87.742c1.205,3.015 2.409,6.029 3.614,9.044l3.635,9.176c0.867,2.205 1.734,4.411 2.601,6.616c39.756,115.465 34.441,128.21 47.073,212.053c1.821,61.202 1.887,60.93 -0.018,121.836c-9.244,61.99 -6.492,73.761 -25.211,143.548c-15.283,54.268 -23.497,71.914 -26.005,78.839c-7.724,19.299 -7.526,19.303 -8.203,20.972l-3.063,6.396c-4.18,9.321 -8.361,18.643 -12.541,27.964l-9.457,18.823c-14.433,25.93 -14.308,25.831 -15.558,28.074c-1.127,2.023 -2.254,4.045 -3.381,6.068c-4.293,7.148 -8.587,14.296 -12.88,21.444l-6.306,9.644c-2.065,3.087 -4.13,6.173 -6.195,9.26c-2.02,3.157 -4.039,6.315 -6.059,9.472c-2.59,3.475 -5.18,6.95 -7.77,10.425c-4.773,6.511 -4.752,6.462 -5.155,7.031c-1.522,2.149 -1.118,2.127 -2.725,4.397c-2.2,3.013 -4.4,6.026 -6.6,9.04c-6.244,7.519 -5.907,7.409 -12.193,15.757c-1.338,1.881 -2.516,3.538 -18.609,22.048l-8.706,9.783c-10.634,11.247 -24.037,28.476 -68.774,68.607l-6.517,6.032c-11.246,8.929 -11.177,8.697 -22.125,18.233c-1.69,1.317 -15.7,12.231 -21.357,16.16l-3.603,2.611c-9.482,6.404 -9.234,6.325 -18.298,13.011l-3.593,2.608c-5.036,3.312 -10.073,6.624 -15.109,9.937l-3.625,2.43c-30.421,18.606 -59.195,35.96 -105.643,56.969c-2.101,0.985 -4.201,1.97 -6.302,2.956l-15.491,6.442c-2.14,0.964 -4.281,1.928 -6.421,2.892c-31.041,11.703 -30.9,11.554 -62.255,21.882c-97.674,27.87 -122,23.549 -165.46,31.459c-83.853,2.539 -98.309,0.199 -121.834,0.001c-36.288,-6.587 -86.361,-6.758 -166.135,-32.228c-4.991,-1.487 -26.262,-7.825 -61.587,-21.1l-6.398,-2.927c-9.542,-4.144 -41.306,-16.303 -90.235,-44.182c-17.286,-9.406 -23.917,-14.496 -36.943,-22.216c-1.217,-0.928 -2.435,-1.855 -3.652,-2.783c-6.059,-3.523 -14.133,-8.771 -15.345,-9.56l-3.586,-2.606c-3.512,-2.47 -24.637,-17.327 -43.253,-31.781c-0.558,-0.423 -0.361,-0.392 -6.737,-5.584c-4.224,-3.508 -3.721,-3.712 -7.982,-7.251c-0.567,-0.471 -0.544,-0.412 -7.337,-5.56l-6.579,-5.832c-36.223,-32.509 -35.197,-33.189 -68.791,-68.633l-8.725,-9.773c-15.87,-18.178 -17.27,-20.179 -18.594,-22.071c-4.086,-5.219 -8.172,-10.438 -12.258,-15.657c-2.209,-3.034 -4.419,-6.067 -6.628,-9.101c-3.025,-4.173 -6.05,-8.346 -9.075,-12.518c-6.321,-8.681 -6.28,-8.651 -6.788,-9.284c-1.917,-3.178 -3.834,-6.357 -5.751,-9.535c-2.074,-3.085 -4.147,-6.169 -6.221,-9.254l-6.309,-9.632c-23.955,-39.757 -22.95,-41.449 -31.797,-55.637l-9.505,-18.765c-6.207,-14.177 -6.201,-13.955 -12.511,-27.985l-3.061,-6.394c-1.082,-2.614 -0.792,-2.465 -1.967,-5.305c-0.337,-0.815 -0.32,-0.752 -4.324,-10.148l-1.953,-5.542c-1.186,-2.471 -2.371,-4.943 -3.557,-7.414c-26.037,-79.208 -24.468,-79.494 -29.24,-99.387c-13.657,-56.923 -8.09,-57.587 -18.383,-112.445c-2.445,-73.357 -1.429,-76.578 0.004,-128.079c8.22,-46.969 6.312,-68.385 21.974,-128.01c1.098,-4.13 2.196,-8.261 3.294,-12.391c2.045,-7.296 4.089,-14.592 6.134,-21.888c7.616,-23.423 7.51,-23.09 15.64,-46.672c0.867,-2.198 1.735,-4.397 2.602,-6.595c1.19,-3.064 2.38,-6.127 3.57,-9.191l3.662,-9.067c19.653,-44.878 20.255,-44.363 43.252,-87.65c1.122,-2.01 2.244,-4.019 3.366,-6.029c9.273,-15.676 17.448,-28.481 19.011,-30.929l6.324,-9.641c2.024,-3.038 4.047,-6.077 6.071,-9.115c0.543,-0.748 0.376,-0.628 6.532,-9.524c2.931,-4.194 5.862,-8.388 8.792,-12.581c2.18,-3.14 4.36,-6.28 6.54,-9.421c6.719,-7.473 6.437,-7.464 12.593,-15.303c7.184,-10.151 24.817,-29.58 27.074,-32.067c32.361,-33.346 31.462,-33.985 65.754,-65.409c3.272,-2.981 6.544,-5.962 9.816,-8.943c50.269,-40.222 50.298,-39.692 84.261,-62.217c0.482,-0.366 22.773,-15.325 40.593,-25.005c5.819,-3.316 34.021,-19.388 74.753,-37.702c11.769,-4.872 20.146,-8.618 21.886,-9.396c34.815,-13.125 56.566,-19.624 61.554,-21.115c102.624,-30.608 106.49,-21.463 166.159,-32.22Z" style="fill:#15c5fe;fill-opacity:1;"/><path d="M984.268,614.062c-0,599.82 0.672,600.38 -3.97,612.737c-18.28,48.659 -90.215,79.309 -143.304,26.804c-10.662,-10.544 -201.161,-201.313 -218.647,-218.824c-33.519,-33.566 -41.885,-44.79 -51.179,-44.867c-157.22,-1.317 -196.654,12.419 -221.795,-47.748c-5.174,-12.383 -4.504,-12.884 -4.502,-243.727c0.001,-99.711 64.363,-88.332 151.316,-88.332c78.481,-0 79.959,1.491 87.198,-5.724c237.599,-236.79 236.871,-237.477 257.609,-257.986c64.255,-63.548 146.308,-3.117 147.1,42.607c0.142,8.211 0.174,8.175 0.174,225.059Z" style="fill:#fefeff;"/></g></svg>